PathFileType	4	(X/Y/Z)	C:\Users\WrightLab\Desktop\Jo\P3_7.trc
DataRate	CameraRate	NumFrames	NumMarkers	Units	OrigDataRate	OrigDataStartFrame	OrigNumFrames
100.00	100.00	       6	19	mm	100.00	145	       576
Frame#	Time	Headset_Front			Headset_Back			Headset_Left			Headset_Right			Left_Shoulder			Right_Shoulder			Sternum			C7			Left Elbow			Right Elbow			Left Wrist			Right Wrist			Left ASIS			Right ASIS			S2			Left Knee			Right Knee			Left Ankle			Right Ankle			
		X1	Y1	Z1	X2	Y2	Z2	X3	Y3	Z3	X4	Y4	Z4	X5	Y5	Z5	X6	Y6	Z6	X7	Y7	Z7	X8	Y8	Z8	X9	Y9	Z9	X10	Y10	Z10	X11	Y11	Z11	X12	Y12	Z12	X13	Y13	Z13	X14	Y14	Z14	X15	Y15	Z15	X16	Y16	Z16	X17	Y17	Z17	X18	Y18	Z18	X19	Y19	Z19	

145	1.440	-487.85834	1499.00122	-442.61862	-618.67963	1591.14929	-681.87201				-684.29376	1516.73816	-484.16489	-419.28433	1318.36523	-639.16400	-775.76184	1324.43750	-636.19690	-588.39270	1205.98596	-500.90030	-606.23016	1369.48596	-689.47931	-332.16519	992.01581	-666.55615	-847.10272	978.77911	-648.24915	-325.83795	801.22095	-573.58594	-863.20978	793.93457	-512.29620	-500.51248	841.82629	-507.32709				-609.27246	917.60327	-730.51093	-539.27570	424.66257	-498.00922	-770.09290	413.56555	-502.34637	-559.31323	94.98396	-538.49835				
146	1.450	-488.49973	1499.61011	-433.54468	-619.59900	1592.19165	-673.74677				-684.05090	1517.30884	-475.04507	-419.77664	1320.37244	-631.52142	-776.41882	1325.28601	-627.56171	-589.35010	1207.16638	-492.87582	-607.20056	1370.64563	-681.25677	-331.39081	994.14539	-658.40967	-847.92987	979.46191	-639.51508	-325.08929	803.49567	-565.65900	-863.86017	795.38623	-502.27924	-499.20746	842.72510	-499.38394				-610.89178	918.58484	-722.63617	-538.35223	424.48962	-495.83853	-770.66522	417.60138	-482.03662	-559.48315	94.69510	-538.01514				
147	1.460	-489.14560	1499.78735	-424.35147	-620.56488	1592.89746	-664.92072				-686.33362	1519.24890	-467.44211	-420.70090	1322.04639	-623.84357	-777.20203	1325.59619	-618.73572	-589.33514	1206.90320	-484.36493	-607.99548	1371.77478	-672.36743	-331.82626	996.18030	-650.62292	-848.68115	980.17657	-631.34717	-324.11139	805.13940	-557.30634	-863.81580	797.75067	-492.44025	-499.27710	843.19373	-492.88599	-752.28235	848.02789	-510.33810	-612.19629	918.95551	-714.42340	-539.34662	423.67209	-492.71600	-771.48834	422.20718	-463.41437	-559.55115	94.74676	-537.52808	-742.81787	209.90367	-726.13434	
148	1.470	-489.99490	1501.07727	-416.49554	-621.57666	1593.46790	-656.23462				-685.44983	1519.67029	-457.93008	-421.88452	1322.84631	-616.30127	-778.25305	1326.51477	-610.29352	-589.59863	1208.43274	-476.23456	-609.09296	1372.28186	-663.41339	-331.63196	997.51880	-641.92047	-849.23669	980.84448	-622.80542	-323.20581	807.07172	-549.11200	-865.88861	799.50232	-482.03668	-498.65762	842.99243	-484.97092	-750.42773	848.39325	-500.92776	-613.46039	919.65161	-706.85071	-538.57556	424.21710	-489.96179	-769.80865	425.94443	-443.73120	-559.73712	94.84491	-536.48468	-746.01526	208.14050	-703.78607	
149	1.480	-490.75302	1501.89978	-408.37555	-622.56085	1594.19434	-647.94202				-686.41553	1520.69141	-449.45120	-422.98386	1324.15576	-607.93988	-778.99091	1327.05688	-601.74664	-590.28485	1209.23975	-468.25110	-609.97205	1373.52637	-655.02478	-331.55417	998.71857	-632.45892	-850.00061	981.03784	-613.91168	-322.10767	808.49829	-540.77863	-867.42365	801.77637	-471.81342	-498.62762	843.27972	-478.42542				-614.93896	920.14404	-698.83423	-539.39020	423.33450	-486.76062	-769.34033	429.69681	-425.71005	-559.85614	94.96734	-536.48431	-748.39044	204.43263	-678.51251	
150	1.490	-491.44415	1501.78027	-399.66867	-623.63916	1594.55884	-638.75641				-686.06549	1520.72681	-440.00824	-423.66107	1325.50903	-600.50897	-779.82831	1327.44458	-592.93726	-590.69641	1209.89771	-459.73154	-611.01007	1373.99341	-647.13257	-331.61887	1000.41858	-624.96985	-850.49323	981.60785	-605.27856	-322.20523	809.79083	-532.16876	-867.83948	801.92303	-461.57318	-498.12427	843.61279	-471.73276	-749.83148	850.30188	-487.33975	-616.27295	920.47766	-691.22662	-537.91406	422.85553	-484.14291	-769.22412	433.92542	-408.18268	-559.93774	95.01362	-536.13885	-751.22510	201.12178	-654.70935	
